<?xml version="1.0" encoding="utf-8"?>
<!-- Generator: Adobe Illustrator 24.0.2, SVG Export Plug-In . SVG Version: 6.00 Build 0)  -->
<svg version="1.1"
	 id="svg8" inkscape:version="0.92.0 r15299" sodipodi:docname="active campaign.svg" xmlns:cc="http://creativecommons.org/ns#" xmlns:dc="http://purl.org/dc/elements/1.1/" xmlns:inkscape="http://www.inkscape.org/namespaces/inkscape" xmlns:rdf="http://www.w3.org/1999/02/22-rdf-syntax-ns#" xmlns:sodipodi="http://sodipodi.sourceforge.net/DTD/sodipodi-0.dtd" xmlns:svg="http://www.w3.org/2000/svg"
	 xmlns="http://www.w3.org/2000/svg" xmlns:xlink="http://www.w3.org/1999/xlink" x="0px" y="0px" viewBox="0 0 389.2 42.1"
	 style="enable-background:new 0 0 389.2 42.1;" xml:space="preserve">
<style type="text/css">
	.st0{fill:#356AE6;}
	.st1{fill:#999999;}
</style>
<sodipodi:namedview  bordercolor="#666666" borderopacity="1.0" fit-margin-bottom="0" fit-margin-left="0" fit-margin-right="0" fit-margin-top="0" id="base" inkscape:current-layer="layer1" inkscape:cx="257.54995" inkscape:cy="26.150089" inkscape:document-units="mm" inkscape:pageopacity="0.0" inkscape:pageshadow="2" inkscape:window-height="744" inkscape:window-maximized="1" inkscape:window-width="1280" inkscape:window-x="-4" inkscape:window-y="-4" inkscape:zoom="1.7414095" pagecolor="#ffffff" showgrid="false">
	</sodipodi:namedview>
<path id="path12" inkscape:connector-curvature="0" class="st0" d="M291.2-133.5h-2.6v2.6c0,0.7,0.3,1.5,1.7,1.5h2.6v-2.6
	C292.9-132.6,292.6-133.5,291.2-133.5z"/>
<path id="path14" inkscape:connector-curvature="0" class="st0" d="M291-125.1h-2.1v21.7c0,0.9,0.6,1.5,1.4,1.6v0.1h2.4v-21.7
	C292.6-124.4,292.1-125,291-125.1L291-125.1z"/>
<path id="path16" inkscape:connector-curvature="0" class="st0" d="M163.9-108.1c-0.9-0.9-2-0.7-2.7-0.1c-2.8,2.3-5.3,3.2-8.6,3.2
	c-6.6,0-11.9-5.6-11.9-12.7c0-7.1,5.1-12.6,11.9-12.6c3.2,0,5.9,1,8.5,3.1c0.6,0.5,1.6,0.8,2.4-0.1c0.7-0.7,1.4-1.4,1.4-1.4l0.1-0.1
	l-0.1-0.1c-2.7-2.6-6.1-5-12.2-5c-8.9,0-15.8,7.2-15.8,16.3c0,9.2,6.8,16.2,15.7,16.2c5,0,8.7-1.7,12.4-5.5l0.1-0.1l-0.1-0.1
	C165-107.1,164.8-107.3,163.9-108.1L163.9-108.1z"/>
<path id="path18" inkscape:connector-curvature="0" class="st0" d="M220.9-125.6c-3.3,0-5.9,1.4-7.9,4.3c-0.9-1.8-3-4.4-7.4-4.4
	c-3.7,0-5.8,1.9-7.3,3.9v-1.7c0-1.1-0.7-1.8-1.7-1.8h-2.1v23.3h2.1c1.1,0,1.7-0.3,1.7-1.6v-11.6c0-4,2.6-7.1,6.2-7.1
	c3.6,0,5.7,2.5,5.7,6.7v12c0,1.1,0.6,1.7,1.7,1.7h2.1v-13.4c0-4.8,3.1-6.9,6.2-6.9c3.7,0,5.8,2.5,5.8,6.7v11.7c0,1,0.2,1.9,1.7,1.9
	h2v-14.3C229.6-122,226.3-125.6,220.9-125.6L220.9-125.6z"/>
<path id="path20" inkscape:connector-curvature="0" class="st0" d="M248-125.5c-3.5,0-6.3,1.5-8.6,4.7v-2.4c0-1.2-0.7-1.8-1.9-1.8
	h-1.9v28.7c0,1.1,0.5,1.7,1.7,1.7h2.1v-11.1c2.3,3,5.1,4.5,8.6,4.5c5.4,0,11.1-4.3,11.1-12.2C259.1-121.3,253.4-125.5,248-125.5
	L248-125.5z M255.2-113.4c0,5.1-3.2,8.6-7.9,8.6c-4,0-8.1-3.3-8.1-8.7c0-5.4,4.1-8.7,8.1-8.7C251.2-122.1,255.2-119.1,255.2-113.4z"
	/>
<path id="path22" inkscape:connector-curvature="0" class="st0" d="M317.4-123.4v2c-1.6-2-4.3-4.3-8.8-4.3c-2.8,0-5.5,1.1-7.6,2.9
	c-2.2,2-3.4,4.9-3.4,8.1c0,7.1,5.6,10.9,10.9,10.9c3.4,0,6.4-1.4,8.8-4.4v2.3c0,5.1-3,8-8.1,8c-2.5,0-4.9-0.6-7.1-1.9
	c-0.6-0.4-1.1-0.5-1.4-0.5c-0.5,0-0.9,0.2-1.2,0.8c-0.6,1-0.8,1.4-0.8,1.4l-0.1,0.1l0.1,0.1c3.1,2.2,6.6,3.2,10.5,3.2
	c7.5,0,11.9-4.1,11.9-11.3v-19.1h-2.1C318.4-125.1,317.4-124.5,317.4-123.4L317.4-123.4z M317.6-114.5c0,4.8-4.2,7.7-8.3,7.7
	c-4.4,0-7.7-3.3-7.7-7.7c0-4.4,3.3-7.6,7.7-7.6C313.3-122.1,317.6-119.5,317.6-114.5z"/>
<path id="path24" inkscape:connector-curvature="0" class="st0" d="M338.9-125.5c-3.3,0-5.9,1.4-7.7,4v-2c0-1.1-0.9-1.6-1.8-1.6
	h-2.1v23.3h3.8l-0.1-13.4c0-4.1,2.8-7,6.8-7c3.9,0,6.2,2.5,6.2,6.8v12c0,1.1,0.5,1.6,1.5,1.6h2.3v-14.6
	C347.8-121.9,344.4-125.5,338.9-125.5L338.9-125.5z"/>
<path id="path26" inkscape:connector-curvature="0" class="st0" d="M273.2-125.4c-2.9,0-5.5,0.6-8.4,1.9l-0.1,0.1l0.1,0.1
	c0,0,0.4,1.1,0.7,1.8c0.3,0.8,1.2,0.8,1.9,0.5c2-0.8,3.7-1.1,5.6-1.1c4.3,0,6.6,2.2,6.6,6.1v5.6c0,3.5-3.1,6-7.5,6
	c-2.7,0-5.6-1.4-5.6-4.3c0-2.9,2.3-4.4,6.5-4.4h1.9c1.1,0,1.7-0.5,1.7-1.6v-1.3h-3.9c-6.4,0-10,2.7-10,7.4c0,3.5,2.7,7.4,8.8,7.4
	c3.3,0,6.1-1.3,8.1-3.7v1.6c0,1.1,0.5,1.5,1.7,1.5h2.1v-14.3C283.1-122,279.6-125.4,273.2-125.4L273.2-125.4z"/>
<path id="path28" inkscape:connector-curvature="0" class="st0" d="M178.8-125.4c-3.6,0-6.2,0.9-8.4,1.9l-0.1,0.1l0.1,0.1
	c0,0,0.4,1.1,0.7,1.8c0.3,0.8,1.2,0.8,1.9,0.5c1.9-0.8,3.7-1.1,5.6-1.1c4.3,0,6.7,2.2,6.7,6.1v5.5c0,3.5-3.2,6-7.5,6
	c-2.7,0-5.6-1.4-5.6-4.3c0-2.9,2.3-4.4,6.5-4.4h1.9c1.1,0,1.6-0.5,1.6-1.6v-1.3h-3.8c-6.4,0-10.1,2.7-10.1,7.4
	c0,3.5,2.7,7.4,8.7,7.4c3.3,0,6.1-1.3,8.2-3.7v1.6c0,1.1,0.5,1.5,1.6,1.5h2.1v-14.3C188.7-122.1,185.2-125.4,178.8-125.4
	L178.8-125.4z"/>
<g>
	<path id="path30" inkscape:connector-curvature="0" class="st0" d="M223,19.1c-0.5-0.5-21.9-15.4-22.9-16l-0.3-0.2v3.7
		c0,1.2,0.6,1.6,1.4,2.2l0.1,0.1c1.1,0.8,16.3,11.3,18.3,12.8c-2,1.4-17.5,12.2-18.5,12.8c-1.2,0.8-1.3,1.3-1.3,2.3v3.5
		c0,0,22.7-15.8,23.2-16.2l0,0c1.1-0.8,1.3-1.7,1.3-2.3v-0.5C224.4,20.4,223.9,19.7,223,19.1L223,19.1z"/>
	<path id="path32" inkscape:connector-curvature="0" class="st0" d="M209.7,23.2c0.6,0,1.2-0.2,1.8-0.7c0.8-0.5,1.4-1,1.4-1l0.2-0.1
		l-0.2-0.1c-0.1-0.1-10-7-11.1-7.7c-0.5-0.4-1.1-0.5-1.4-0.2c-0.4,0.2-0.7,0.6-0.7,1.2v2.3l0.1,0.1c0.1,0.1,6.9,4.8,8.2,5.7
		C208.6,23.1,209.2,23.2,209.7,23.2L209.7,23.2z"/>
</g>
<g>
	<path id="path30_1_" inkscape:connector-curvature="0" class="st1" d="M102.6,19.1c-0.5-0.5-21.9-15.4-22.9-16l-0.3-0.2v3.7
		c0,1.2,0.6,1.6,1.4,2.2L81,8.8C82,9.6,97.2,20.1,99.3,21.6c-2,1.4-17.5,12.2-18.5,12.8c-1.2,0.8-1.3,1.3-1.3,2.3v3.5
		c0,0,22.7-15.8,23.2-16.2l0,0c1.1-0.8,1.3-1.7,1.3-2.3v-0.5C104,20.4,103.5,19.7,102.6,19.1L102.6,19.1z"/>
	<path id="path32_1_" inkscape:connector-curvature="0" class="st1" d="M89.3,23.2c0.6,0,1.2-0.2,1.8-0.7c0.8-0.5,1.4-1,1.4-1
		l0.2-0.1l-0.2-0.1c-0.1-0.1-10-7-11.1-7.7c-0.5-0.4-1.1-0.5-1.4-0.2c-0.4,0.2-0.7,0.6-0.7,1.2v2.3l0.1,0.1c0.1,0.1,6.9,4.8,8.2,5.7
		C88.2,23.1,88.8,23.2,89.3,23.2L89.3,23.2z"/>
</g>
<path id="path34" inkscape:connector-curvature="0" class="st0" d="M55-107.1c-0.8-0.8-1.9-0.3-2.3,0.1c-1.7,1.6-3.7,2.3-5.8,2.3
	c-4.6,0-8.2-3.8-8.2-8.8c0-4.9,3.5-8.7,7.9-8.7c2.6,0,4.2,1.1,5.5,2.2c1,0.8,1.8,0.9,2.5,0.1c0.6-0.6,1.3-1.4,1.3-1.4l0.1-0.1
	l-0.1-0.1c-2.6-2.8-5.5-4.1-9.3-4.1c-6.7,0-12,5.3-12,12.2c0,6.7,5.4,12.2,12,12.2c4.9,0,7.6-2.5,9.5-4.6h0.1l-0.1-0.1
	C56.1-106.1,55.7-106.4,55-107.1L55-107.1z"/>
<path id="path36" inkscape:connector-curvature="0" class="st0" d="M79.9-133.5h-2.6v2.6c0,0.7,0.3,1.5,1.7,1.5h2.6v-2.3
	C81.6-132.8,80.9-133.5,79.9-133.5L79.9-133.5z"/>
<path id="path38" inkscape:connector-curvature="0" class="st0" d="M79.6-125.1h-2.2v21.7c0,0.9,0.6,1.5,1.4,1.6v0.1h2.4v-21.7
	C81.3-124.4,80.7-125,79.6-125.1L79.6-125.1z"/>
<path id="path40" inkscape:connector-curvature="0" class="st0" d="M104.2-123.8c-0.3,0.8-6,14.6-7.1,17.2c-1.1-2.6-6.8-16.4-7-17.2
	c-0.4-0.9-1.1-1.4-2.1-1.4h-2.7l0.1,0.2c0.1,0.3,9.2,21.2,9.5,22c0.4,1,1,1.2,2,1.2h0.5c0.9,0,1.5-0.4,1.9-1.2
	c0.4-0.8,9.5-21.6,9.5-21.8l0.1-0.3h-2.6C105.3-125.1,104.6-124.7,104.2-123.8L104.2-123.8z"/>
<path id="path42" inkscape:connector-curvature="0" class="st0" d="M127.7-114.8h-8.9c-1,0-1.6,0.6-1.6,1.6v1.5h0.2
	c4.3-0.1,9.2-0.1,11.3-0.1c1.2,0,2.1-0.3,2.8-1c0.6-0.7,0.9-1.7,0.8-2.9c-0.7-6-4.9-9.9-10.8-9.9c-6.4,0-11.3,5.2-11.3,12.2
	c0,7,5,12.2,11.7,12.2c3.9,0,6.8-1.4,9.6-4.3l0.1-0.1l-0.1-0.1c0,0-0.5-0.5-1.1-1c-0.9-0.8-1.7-0.5-2.2,0c-1.6,1.5-3.7,2.3-6.2,2.3
	c-4.3,0-7.4-3.1-8-7.7c0,0-0.1-0.5-0.1-1.2c0-0.8,0.1-1.3,0.1-1.3c0.5-4.5,3.5-7.7,7.3-7.7c3.8,0,6.6,2.6,7,6.5
	c0.1,0.4,0,0.7-0.1,0.8C128.1-114.8,127.9-114.8,127.7-114.8L127.7-114.8z"/>
<path id="path44" inkscape:connector-curvature="0" class="st0" d="M19.9-132.3L19.9-132.3c-0.5-0.9-1-1.2-2-1.2H17
	c-0.8,0-1.4,0.5-1.8,1.1c-0.3,0.7-13.5,30.1-13.6,30.4l-0.1,0.3h2.5c1.1,0,1.7-0.5,2.2-1.5c0.5-0.9,2.6-5.9,3-6.7h9.7
	c1.2,0,2-0.8,2-1.9v-1.7H10.6l6.8-15.3c1.4,3.1,10.9,24.9,11.4,25.8c0.6,1.2,2,1.2,2.5,1.2h2.2l-0.1-0.3
	C33.4-102.3,20.3-131.3,19.9-132.3L19.9-132.3z"/>
<path id="path46" inkscape:connector-curvature="0" class="st0" d="M71.8-105.1c-0.4-0.2-0.9-0.3-1.4-0.1c-0.8,0.2-1.4,0.4-2.2,0.4
	c-2.4,0-3.7-1.2-3.7-3.7v-13.1h7.3v-1.6c0-1.2-1-1.8-1.9-1.8h-5.4v-6.6c0-1.1-0.8-1.8-1.9-1.8h-1.9v25.4c0,4.3,2.3,6.7,6.7,6.7
	c1.6,0,3.5-0.4,4.7-1l0.1-0.1v-0.1c0,0,0.1-0.7,0.1-1.5C72.4-104.6,72.1-104.9,71.8-105.1L71.8-105.1z"/>
</svg>
